<?xml version="1.0" encoding="utf-8"?>
<!-- Generator: Adobe Illustrator 16.0.0, SVG Export Plug-In . SVG Version: 6.00 Build 0)  -->
<!DOCTYPE svg PUBLIC "-//W3C//DTD SVG 1.1//EN" "http://www.w3.org/Graphics/SVG/1.1/DTD/svg11.dtd">
<svg version="1.1" id="Layer_1" xmlns="http://www.w3.org/2000/svg" xmlns:xlink="http://www.w3.org/1999/xlink" x="0px" y="0px"
	 width="16px" height="16px" viewBox="0 0 16 16" enable-background="new 0 0 16 16" xml:space="preserve">
<path fill="#22396F" d="M8.954,10.414c0.688,1.181,2.202,1.579,3.383,0.892c0.73-0.427,1.192-1.196,1.226-2.043
	c0.058-1.366-1.004-2.521-2.369-2.579c-0.47-0.02-0.936,0.094-1.342,0.329c0.219-0.569,0.608-1.168,1.23-1.76
	c0.248-0.236,0.26-0.628,0.023-0.876c-0.235-0.248-0.627-0.258-0.877-0.023c-2.303,2.19-2.123,4.687-1.274,6.059V10.414z
	 M3.018,10.158c0.688,1.18,2.203,1.578,3.382,0.891c0.731-0.426,1.194-1.196,1.227-2.042C7.684,7.64,6.623,6.486,5.257,6.428
	C4.788,6.407,4.322,6.522,3.916,6.756c0.219-0.569,0.608-1.169,1.23-1.76C5.395,4.76,5.404,4.368,5.169,4.12
	C4.935,3.872,4.542,3.862,4.294,4.097c-2.305,2.19-2.125,4.686-1.276,6.059V10.158z"/>
</svg>
