<?xml version="1.0" encoding="utf-8"?>
<!-- Generator: Adobe Illustrator 16.0.0, SVG Export Plug-In . SVG Version: 6.00 Build 0)  -->
<!DOCTYPE svg PUBLIC "-//W3C//DTD SVG 1.1//EN" "http://www.w3.org/Graphics/SVG/1.1/DTD/svg11.dtd">
<svg version="1.1" id="Layer_1" xmlns="http://www.w3.org/2000/svg" xmlns:xlink="http://www.w3.org/1999/xlink" x="0px" y="0px"
	 width="16px" height="16px" viewBox="0 0 16 16" enable-background="new 0 0 16 16" xml:space="preserve">
<path fill="#0DC143" d="M13.602,2.326C12.119,0.831,10.1-0.007,7.994,0c-4.367,0-7.926,3.558-7.93,7.926
	c0,1.399,0.366,2.76,1.057,3.965L0,16l4.204-1.102c1.163,0.633,2.466,0.965,3.79,0.965h0.004c4.368,0,7.926-3.559,7.93-7.93
	C15.93,5.829,15.092,3.81,13.6,2.326H13.602z M7.994,14.521c-1.181,0-2.34-0.318-3.356-0.92l-0.24-0.146l-2.494,0.652l0.666-2.434
	l-0.156-0.251c-0.66-1.05-1.009-2.265-1.007-3.505c0-3.626,2.957-6.584,6.591-6.584c1.748-0.003,3.426,0.692,4.66,1.931
	c1.238,1.234,1.932,2.912,1.928,4.66C14.582,11.568,11.625,14.521,7.994,14.521z M11.609,9.587c-0.197-0.099-1.17-0.578-1.354-0.646
	C10.073,8.876,9.941,8.841,9.811,9.04C9.678,9.236,9.298,9.686,9.184,9.814C9.07,9.948,8.952,9.963,8.754,9.865
	c-0.197-0.1-0.836-0.309-1.592-0.985c-0.59-0.525-0.985-1.175-1.103-1.372C5.945,7.31,6.048,7.204,6.147,7.105
	c0.087-0.088,0.197-0.232,0.296-0.346c0.1-0.114,0.133-0.198,0.198-0.33c0.065-0.134,0.034-0.248-0.015-0.347
	c-0.05-0.099-0.445-1.076-0.612-1.47c-0.16-0.389-0.323-0.335-0.445-0.34c-0.114-0.007-0.247-0.007-0.38-0.007
	C4.986,4.27,4.794,4.359,4.66,4.512C4.478,4.71,3.969,5.189,3.969,6.166s0.71,1.916,0.81,2.049c0.098,0.133,1.394,2.133,3.383,2.992
	c0.47,0.205,0.84,0.326,1.129,0.418c0.475,0.152,0.904,0.129,1.246,0.08c0.38-0.059,1.171-0.48,1.338-0.943
	c0.164-0.464,0.164-0.859,0.113-0.943C11.939,9.734,11.807,9.686,11.609,9.587L11.609,9.587z"/>
</svg>
